<svg xmlns="http://www.w3.org/2000/svg" xmlns:xlink="http://www.w3.org/1999/xlink" width="270" zoomAndPan="magnify" viewBox="0 0 202.5 80.999996" height="108" preserveAspectRatio="xMidYMid meet" version="1.0"><defs><g/></defs><g fill="#000000" fill-opacity="1"><g transform="translate(0, 55.717784)"><g><path d="M 1.125 -34.765625 L 26.28125 -34.765625 L 26.28125 -28 L 17.40625 -28 L 17.40625 0 L 10 0 L 10 -28 L 1.125 -28 Z M 1.125 -34.765625 "/></g></g></g><g fill="#000000" fill-opacity="1"><g transform="translate(27.408569, 55.717784)"><g><path d="M 21.96875 -34.765625 L 29.375 -34.765625 L 29.375 -12.546875 C 29.375 -10.816406 29.015625 -9.148438 28.296875 -7.546875 C 27.578125 -5.941406 26.59375 -4.535156 25.34375 -3.328125 C 24.101562 -2.117188 22.65625 -1.15625 21 -0.4375 C 19.351562 0.28125 17.582031 0.640625 15.6875 0.640625 C 13.820312 0.640625 12.054688 0.28125 10.390625 -0.4375 C 8.722656 -1.15625 7.273438 -2.117188 6.046875 -3.328125 C 4.828125 -4.535156 3.859375 -5.941406 3.140625 -7.546875 C 2.421875 -9.148438 2.0625 -10.816406 2.0625 -12.546875 L 2.0625 -34.765625 L 9.46875 -34.765625 L 9.46875 -14.015625 C 9.46875 -13.035156 9.628906 -12.113281 9.953125 -11.25 C 10.273438 -10.382812 10.710938 -9.613281 11.265625 -8.9375 C 11.828125 -8.269531 12.492188 -7.738281 13.265625 -7.34375 C 14.035156 -6.957031 14.84375 -6.765625 15.6875 -6.765625 C 16.570312 -6.765625 17.390625 -6.957031 18.140625 -7.34375 C 18.890625 -7.738281 19.550781 -8.269531 20.125 -8.9375 C 20.695312 -9.613281 21.144531 -10.382812 21.46875 -11.25 C 21.800781 -12.113281 21.96875 -13.035156 21.96875 -14.015625 Z M 21.96875 -34.765625 "/></g></g></g><g fill="#000000" fill-opacity="1"><g transform="translate(58.788681, 55.717784)"><g><path d="M 19.515625 -19.65625 L 32.65625 -19.65625 L 32.65625 -6.90625 C 30.695312 -4.425781 28.519531 -2.546875 26.125 -1.265625 C 23.738281 0.00390625 21.238281 0.640625 18.625 0.640625 C 16.28125 0.640625 14.0625 0.160156 11.96875 -0.796875 C 9.875 -1.765625 8.054688 -3.066406 6.515625 -4.703125 C 4.984375 -6.335938 3.765625 -8.242188 2.859375 -10.421875 C 1.960938 -12.597656 1.515625 -14.910156 1.515625 -17.359375 C 1.515625 -19.804688 1.960938 -22.109375 2.859375 -24.265625 C 3.765625 -26.421875 4.984375 -28.316406 6.515625 -29.953125 C 8.054688 -31.585938 9.875 -32.878906 11.96875 -33.828125 C 14.0625 -34.773438 16.28125 -35.25 18.625 -35.25 C 20.851562 -35.25 22.957031 -34.835938 24.9375 -34.015625 C 26.914062 -33.203125 28.832031 -31.847656 30.6875 -29.953125 L 26.375 -24.71875 C 25 -25.988281 23.707031 -26.84375 22.5 -27.28125 C 21.289062 -27.726562 20.019531 -27.953125 18.6875 -27.953125 C 17.3125 -27.953125 16.023438 -27.671875 14.828125 -27.109375 C 13.640625 -26.554688 12.601562 -25.804688 11.71875 -24.859375 C 10.832031 -23.910156 10.132812 -22.789062 9.625 -21.5 C 9.125 -20.207031 8.875 -18.828125 8.875 -17.359375 C 8.875 -15.890625 9.125 -14.515625 9.625 -13.234375 C 10.132812 -11.960938 10.832031 -10.84375 11.71875 -9.875 C 12.601562 -8.914062 13.640625 -8.15625 14.828125 -7.59375 C 16.023438 -7.039062 17.3125 -6.765625 18.6875 -6.765625 C 19.894531 -6.765625 21.09375 -6.984375 22.28125 -7.421875 C 23.476562 -7.867188 24.679688 -8.597656 25.890625 -9.609375 L 25.890625 -13.390625 L 19.515625 -13.390625 Z M 19.515625 -19.65625 "/></g></g></g><g fill="#000000" fill-opacity="1"><g transform="translate(93.110681, 55.717784)"><g><path d="M 16.765625 -11.171875 L 2.359375 -11.171875 L 2.359375 -15.78125 L 16.765625 -15.78125 Z M 16.765625 -11.171875 "/></g></g></g><g fill="#000000" fill-opacity="1"><g transform="translate(112.183908, 55.717784)"><g><path d="M 27.3125 -24.421875 C 27.3125 -23.304688 27.15625 -22.25 26.84375 -21.25 C 26.53125 -20.257812 26.097656 -19.347656 25.546875 -18.515625 C 24.992188 -17.679688 24.320312 -16.941406 23.53125 -16.296875 C 22.75 -15.660156 21.898438 -15.148438 20.984375 -14.765625 L 32.5 0 L 23.828125 0 L 13.09375 -14.015625 L 9.75 -14.015625 L 9.75 0 L 2.296875 0 L 2.296875 -34.765625 L 17.3125 -34.765625 C 18.6875 -34.765625 19.984375 -34.492188 21.203125 -33.953125 C 22.429688 -33.410156 23.492188 -32.671875 24.390625 -31.734375 C 25.285156 -30.804688 25.992188 -29.710938 26.515625 -28.453125 C 27.046875 -27.203125 27.3125 -25.859375 27.3125 -24.421875 Z M 16.375 -20.796875 C 17.320312 -20.796875 18.140625 -21.144531 18.828125 -21.84375 C 19.515625 -22.539062 19.859375 -23.398438 19.859375 -24.421875 C 19.859375 -25.398438 19.515625 -26.238281 18.828125 -26.9375 C 18.140625 -27.644531 17.320312 -28 16.375 -28 L 9.75 -28 L 9.75 -20.796875 Z M 16.375 -20.796875 "/></g></g></g><g fill="#000000" fill-opacity="1"><g transform="translate(145.868505, 55.717784)"><g><path d="M 24.421875 -17.890625 C 25.796875 -17.078125 26.84375 -16.03125 27.5625 -14.75 C 28.28125 -13.476562 28.640625 -12.007812 28.640625 -10.34375 C 28.640625 -8.769531 28.257812 -7.304688 27.5 -5.953125 C 26.75 -4.597656 25.6875 -3.398438 24.3125 -2.359375 C 23.070312 -1.410156 21.660156 -0.679688 20.078125 -0.171875 C 18.492188 0.335938 16.816406 0.609375 15.046875 0.640625 C 13.285156 0.640625 11.601562 0.394531 10 -0.09375 C 8.394531 -0.582031 6.972656 -1.316406 5.734375 -2.296875 C 3.867188 -3.703125 2.59375 -5.40625 1.90625 -7.40625 L 8.78125 -10.59375 C 8.78125 -10.257812 8.894531 -9.847656 9.125 -9.359375 C 9.351562 -8.867188 9.710938 -8.394531 10.203125 -7.9375 C 10.691406 -7.476562 11.328125 -7.085938 12.109375 -6.765625 C 12.890625 -6.441406 13.851562 -6.28125 15 -6.28125 C 15.914062 -6.28125 16.722656 -6.394531 17.421875 -6.625 C 18.128906 -6.851562 18.71875 -7.132812 19.1875 -7.46875 C 19.664062 -7.8125 20.023438 -8.203125 20.265625 -8.640625 C 20.515625 -9.085938 20.640625 -9.539062 20.640625 -10 C 20.640625 -10.519531 20.46875 -11.007812 20.125 -11.46875 C 19.78125 -11.925781 19.25 -12.285156 18.53125 -12.546875 C 17.226562 -13.003906 15.847656 -13.390625 14.390625 -13.703125 C 12.929688 -14.015625 11.515625 -14.40625 10.140625 -14.875 C 8.773438 -15.351562 7.503906 -15.984375 6.328125 -16.765625 C 5.148438 -17.554688 4.21875 -18.648438 3.53125 -20.046875 C 2.90625 -21.296875 2.59375 -22.625 2.59375 -24.03125 C 2.59375 -25.59375 2.960938 -27.109375 3.703125 -28.578125 C 4.441406 -30.054688 5.445312 -31.300781 6.71875 -32.3125 C 7.925781 -33.257812 9.28125 -33.984375 10.78125 -34.484375 C 12.289062 -34.992188 13.878906 -35.25 15.546875 -35.25 C 17.210938 -35.25 18.804688 -35.003906 20.328125 -34.515625 C 21.847656 -34.023438 23.210938 -33.304688 24.421875 -32.359375 C 25.597656 -31.472656 26.53125 -30.441406 27.21875 -29.265625 L 21.625 -25.453125 C 20.9375 -26.398438 20.078125 -27.15625 19.046875 -27.71875 C 18.015625 -28.289062 16.863281 -28.578125 15.59375 -28.578125 C 13.820312 -28.578125 12.453125 -28.1875 11.484375 -27.40625 C 10.523438 -26.625 10.046875 -25.59375 10.046875 -24.3125 C 10.046875 -23.726562 10.316406 -23.207031 10.859375 -22.75 C 11.398438 -22.289062 12.101562 -21.878906 12.96875 -21.515625 C 13.832031 -21.160156 14.800781 -20.84375 15.875 -20.5625 C 16.957031 -20.289062 18.03125 -20.015625 19.09375 -19.734375 C 20.15625 -19.453125 21.160156 -19.164062 22.109375 -18.875 C 23.054688 -18.582031 23.828125 -18.253906 24.421875 -17.890625 Z M 24.421875 -17.890625 "/></g></g></g><g fill="#000000" fill-opacity="1"><g transform="translate(176.07186, 55.717784)"><g><path d="M 2.359375 -34.765625 L 24.078125 -34.765625 L 24.078125 -28 L 9.8125 -28 L 9.8125 -21.71875 L 22.359375 -21.71875 L 22.359375 -14.953125 L 9.8125 -14.953125 L 9.8125 -6.71875 L 24.078125 -6.71875 L 24.078125 0 L 2.359375 0 Z M 2.359375 -34.765625 "/></g></g></g></svg>